<svg width="1920" height="1080" viewBox="0 0 1920 1080" fill="none" xmlns="http://www.w3.org/2000/svg" class="svg-background h-screen w-[101vw]"><g filter="url(#filter0_f)"><line x1="1557" y1="84" x2="3151" y2="83.9999" stroke="url(#paint0_radial)" stroke-opacity="0.5" stroke-width="100"></line></g><g filter="url(#filter1_f)"><line x1="-798" y1="526" x2="294" y2="526" stroke="url(#paint1_radial)" stroke-opacity="0.5" stroke-width="100"></line></g><g filter="url(#filter2_f)"><line x1="1264" y1="131" x2="1524" y2="131" stroke="url(#paint2_radial)" stroke-opacity="0.5" stroke-width="100"></line></g><g filter="url(#filter3_f)"><line x1="970" y1="628" x2="1660" y2="628" stroke="url(#paint3_radial)" stroke-opacity="0.5" stroke-width="100"></line></g><path opacity="0.3" d="M236.989 770.302L228.643 765.323C227.257 764.47 225.67 764.013 224.049 764C222.434 763.988 220.846 764.424 219.455 765.259L211.858 769.79L210.983 770.309L203.357 774.854H203.308H203.273C201.682 775.612 200.339 776.816 199.401 778.325C198.472 779.845 197.986 781.601 198 783.389V802.544H198.035V803.582C198.038 805.226 198.46 806.841 199.261 808.269C200.051 809.681 201.193 810.856 202.573 811.676L210.485 816.392H210.542L210.773 816.549L211.011 816.698L219.357 821.677C220.743 822.531 222.33 822.988 223.951 823C225.566 823.012 227.154 822.577 228.545 821.741L236.142 817.21L237.017 816.691L244.643 812.146H244.692H244.727C246.318 811.389 247.662 810.185 248.599 808.675C249.529 807.156 250.014 805.399 250 803.611V784.492H249.965V783.453C249.962 781.81 249.54 780.195 248.739 778.766C247.951 777.353 246.808 776.178 245.427 775.359L237.514 770.643H237.458L237.227 770.487L236.996 770.338L236.989 770.302Z" fill="#ED3262"></path><path opacity="0.3" d="M1811.99 726.311L1807.5 723.695C1806.75 723.247 1805.9 723.007 1805.03 723C1804.16 722.994 1803.3 723.223 1802.55 723.662L1798.46 726.042L1797.99 726.315L1793.88 728.703H1793.86H1793.84C1792.98 729.101 1792.26 729.734 1791.75 730.527C1791.25 731.325 1790.99 732.248 1791 733.188V743.252H1791.02V743.797C1791.02 744.661 1791.25 745.51 1791.68 746.26C1792.1 747.002 1792.72 747.619 1793.46 748.05L1797.72 750.528H1797.75L1797.88 750.61L1798.01 750.689L1802.5 753.305C1803.25 753.754 1804.1 753.994 1804.97 754C1805.84 754.006 1806.7 753.778 1807.45 753.338L1811.54 750.958L1812.01 750.685L1816.12 748.297H1816.14H1816.16C1817.02 747.9 1817.74 747.267 1818.25 746.473C1818.75 745.675 1819.01 744.752 1819 743.812V733.767H1818.98V733.221C1818.98 732.358 1818.75 731.509 1818.32 730.758C1817.9 730.016 1817.28 729.399 1816.54 728.968L1812.28 726.491H1812.25L1812.12 726.408L1812 726.33L1811.99 726.311Z" fill="#30836D"></path><path d="M346.123 513.855L113.041 379.285L-120.083 513.928L112.999 648.498L346.123 513.855Z" stroke="#222427" stroke-miterlimit="10"></path><path d="M346.138 513.863L113.014 648.506L113.638 916.565L346.096 783.076L346.138 513.863Z" stroke="#222427" stroke-miterlimit="10"></path><path d="M-120.083 513.928L-119.459 781.986L113.623 916.557L112.999 648.498L-120.083 513.928Z" stroke="#222427" stroke-miterlimit="10"></path><path d="M827.123 816.855L594.041 682.285L360.917 816.928L593.999 951.498L827.123 816.855Z" stroke="#222427" stroke-miterlimit="10"></path><path d="M827.138 816.863L594.014 951.506L594.638 1219.56L827.096 1086.08L827.138 816.863Z" stroke="#222427" stroke-miterlimit="10"></path><path d="M360.917 816.928L361.541 1084.99L594.623 1219.56L593.999 951.498L360.917 816.928Z" stroke="#222427" stroke-miterlimit="10"></path><path opacity="0.3" d="M1518.99 600.302L1510.64 595.323C1509.26 594.47 1507.67 594.013 1506.05 594C1504.43 593.988 1502.85 594.424 1501.46 595.259L1493.86 599.79L1492.98 600.309L1485.36 604.854H1485.31H1485.27C1483.68 605.612 1482.34 606.816 1481.4 608.325C1480.47 609.845 1479.99 611.601 1480 613.389V632.544H1480.04V633.582C1480.04 635.226 1480.46 636.841 1481.26 638.269C1482.05 639.681 1483.19 640.856 1484.57 641.676L1492.49 646.392H1492.54L1492.77 646.549L1493.01 646.698L1501.36 651.677C1502.74 652.531 1504.33 652.988 1505.95 653C1507.57 653.012 1509.15 652.577 1510.54 651.741L1518.14 647.21L1519.02 646.691L1526.64 642.146H1526.69H1526.73C1528.32 641.389 1529.66 640.185 1530.6 638.675C1531.53 637.156 1532.01 635.399 1532 633.611V614.492H1531.96V613.453C1531.96 611.81 1531.54 610.195 1530.74 608.766C1529.95 607.353 1528.81 606.178 1527.43 605.359L1519.51 600.643H1519.46L1519.23 600.487L1519 600.338L1518.99 600.302Z" fill="#ED3262"></path><path opacity="0.3" d="M1702.75 307.816L1705.16 306.381C1705.56 306.135 1706.02 306.004 1706.49 306C1706.95 305.997 1707.41 306.122 1707.81 306.363L1710 307.668L1710.26 307.818L1712.45 309.127H1712.47H1712.48C1712.94 309.346 1713.33 309.693 1713.6 310.128C1713.86 310.565 1714 311.071 1714 311.587V317.106H1713.99V317.405C1713.99 317.879 1713.87 318.344 1713.64 318.756C1713.41 319.162 1713.08 319.501 1712.68 319.737L1710.4 321.096H1710.38L1710.32 321.141L1710.25 321.184L1707.84 322.619C1707.44 322.865 1706.98 322.997 1706.51 323C1706.05 323.003 1705.59 322.878 1705.19 322.637L1703 321.332L1702.74 321.182L1700.55 319.873H1700.53H1700.52C1700.06 319.655 1699.67 319.307 1699.4 318.872C1699.14 318.435 1699 317.929 1699 317.413V311.904H1699.01V311.605C1699.01 311.132 1699.13 310.666 1699.36 310.255C1699.59 309.848 1699.92 309.509 1700.32 309.273L1702.6 307.914H1702.62L1702.68 307.869L1702.75 307.826L1702.75 307.816Z" fill="#B58246"></path><path opacity="0.3" d="M272.753 135.816L275.161 134.381C275.561 134.135 276.018 134.004 276.486 134C276.952 133.997 277.41 134.122 277.811 134.363L280.003 135.668L280.255 135.818L282.455 137.127H282.469H282.479C282.938 137.346 283.325 137.693 283.596 138.128C283.864 138.565 284.004 139.071 284 139.587V145.106H283.99V145.405C283.989 145.879 283.867 146.344 283.636 146.756C283.408 147.162 283.079 147.501 282.681 147.737L280.398 149.096H280.382L280.316 149.141L280.247 149.184L277.839 150.619C277.44 150.865 276.982 150.997 276.514 151C276.048 151.003 275.59 150.878 275.189 150.637L272.997 149.332L272.745 149.182L270.545 147.873H270.531H270.521C270.062 147.655 269.674 147.307 269.404 146.872C269.136 146.435 268.996 145.929 269 145.413V139.904H269.01V139.605C269.011 139.132 269.133 138.666 269.364 138.255C269.591 137.848 269.921 137.509 270.319 137.273L272.602 135.914H272.618L272.684 135.869L272.751 135.826L272.753 135.816Z" fill="#ED3262"></path><path d="M900.979 1092.23L958.76 1058.87L979.754 1070.19L923.655 1102.58L900.979 1092.23Z" fill="#B58246"></path><path d="M1865 79.6211L1922.78 46.2611L1943.78 57.5768L1887.68 89.9651L1865 79.6211Z" fill="#30836D"></path><path d="M73.1182 554.258L130.899 520.898L151.893 532.214L95.7951 564.602L73.1182 554.258Z" fill="#30836D"></path><path d="M1699 441.621L1756.78 408.261L1777.78 419.577L1721.68 451.965L1699 441.621Z" fill="#222427"></path><path d="M1438.82 105.344L1496.6 71.9838L1517.6 83.2995L1461.5 115.688L1438.82 105.344Z" fill="#ED3262"></path><path d="M257 336.719L671.753 97.261L692.747 108.577L279.677 347.063L257 336.719Z" fill="#222427"></path><path d="M1057 1256.72L1471.75 1017.26L1492.75 1028.58L1079.68 1267.06L1057 1256.72Z" fill="#222427"></path><path d="M1219.01 610.061L1633.77 370.603L1654.76 381.919L1241.69 620.405L1219.01 610.061Z" fill="#222427"></path><path d="M466.532 418.559L524.313 385.199L545.307 396.514L489.209 428.903L466.532 418.559Z" fill="#222427"></path><path d="M521.699 1028.22L579.48 994.865L600.528 1006.27L544.43 1038.66L521.699 1028.22Z" fill="#222427"></path><path d="M1262.26 875.146L1320.05 841.787L1341.09 853.196L1285 885.584L1262.26 875.146Z" fill="#30836D"></path><g filter="url(#filter4_f)"><line x1="269" y1="1094" x2="1379" y2="1094" stroke="url(#paint4_radial)" stroke-opacity="0.5" stroke-width="100"></line></g><g filter="url(#filter5_f)"><line x1="-403" y1="44" x2="707" y2="44.0001" stroke="url(#paint5_radial)" stroke-opacity="0.5" stroke-width="100"></line></g><g filter="url(#filter6_f)"><line x1="1379" y1="897" x2="3442" y2="897" stroke="url(#paint6_radial)" stroke-opacity="0.5" stroke-width="100"></line></g><path d="M-258 1163.72L156.753 924.261L177.747 935.577L-235.323 1174.06L-258 1163.72Z" fill="#222427"></path><path d="M1779 907.719L2193.75 668.261L2214.75 679.577L1801.68 918.063L1779 907.719Z" fill="#B58246"></path><path d="M1999.12 749.855L1766.04 615.285L1532.92 749.928L1766 884.498L1999.12 749.855Z" stroke="#222427" stroke-miterlimit="10"></path><path d="M1999.14 749.863L1766.01 884.506L1766.64 1152.56L1999.1 1019.08L1999.14 749.863Z" stroke="#222427" stroke-miterlimit="10"></path><path d="M1532.92 749.928L1533.54 1017.99L1766.62 1152.56L1766 884.498L1532.92 749.928Z" stroke="#222427" stroke-miterlimit="10"></path><path d="M1570.12 -68.1449L1337.04 -202.715L1103.92 -68.0724L1337 66.4976L1570.12 -68.1449Z" stroke="#222427" stroke-miterlimit="10"></path><path d="M1570.14 -68.1369L1337.01 66.5057L1337.64 334.565L1570.1 201.076L1570.14 -68.1369Z" stroke="#222427" stroke-miterlimit="10"></path><path d="M1103.92 -68.0723L1104.54 199.986L1337.62 334.557L1337 66.4978L1103.92 -68.0723Z" stroke="#222427" stroke-miterlimit="10"></path><path d="M-92 234.719L322.753 -4.73899L343.747 6.5767L-69.3231 245.063L-92 234.719Z" fill="#ED3262"></path><defs><filter id="filter0_f" x="1307" y="-216" width="2094" height="600" filterUnits="userSpaceOnUse" color-interpolation-filters="sRGB"><feFlood flood-opacity="0" result="BackgroundImageFix"></feFlood><feBlend mode="normal" in="SourceGraphic" in2="BackgroundImageFix" result="shape"></feBlend><feGaussianBlur stdDeviation="125" result="effect1_foregroundBlur"></feGaussianBlur></filter><filter id="filter1_f" x="-1048" y="226" width="1592" height="600" filterUnits="userSpaceOnUse" color-interpolation-filters="sRGB"><feFlood flood-opacity="0" result="BackgroundImageFix"></feFlood><feBlend mode="normal" in="SourceGraphic" in2="BackgroundImageFix" result="shape"></feBlend><feGaussianBlur stdDeviation="125" result="effect1_foregroundBlur"></feGaussianBlur></filter><filter id="filter2_f" x="1014" y="-169" width="760" height="600" filterUnits="userSpaceOnUse" color-interpolation-filters="sRGB"><feFlood flood-opacity="0" result="BackgroundImageFix"></feFlood><feBlend mode="normal" in="SourceGraphic" in2="BackgroundImageFix" result="shape"></feBlend><feGaussianBlur stdDeviation="125" result="effect1_foregroundBlur"></feGaussianBlur></filter><filter id="filter3_f" x="720" y="328" width="1190" height="600" filterUnits="userSpaceOnUse" color-interpolation-filters="sRGB"><feFlood flood-opacity="0" result="BackgroundImageFix"></feFlood><feBlend mode="normal" in="SourceGraphic" in2="BackgroundImageFix" result="shape"></feBlend><feGaussianBlur stdDeviation="125" result="effect1_foregroundBlur"></feGaussianBlur></filter><filter id="filter4_f" x="19" y="794" width="1610" height="600" filterUnits="userSpaceOnUse" color-interpolation-filters="sRGB"><feFlood flood-opacity="0" result="BackgroundImageFix"></feFlood><feBlend mode="normal" in="SourceGraphic" in2="BackgroundImageFix" result="shape"></feBlend><feGaussianBlur stdDeviation="125" result="effect1_foregroundBlur"></feGaussianBlur></filter><filter id="filter5_f" x="-653" y="-256" width="1610" height="600" filterUnits="userSpaceOnUse" color-interpolation-filters="sRGB"><feFlood flood-opacity="0" result="BackgroundImageFix"></feFlood><feBlend mode="normal" in="SourceGraphic" in2="BackgroundImageFix" result="shape"></feBlend><feGaussianBlur stdDeviation="125" result="effect1_foregroundBlur"></feGaussianBlur></filter><filter id="filter6_f" x="1129" y="597" width="2563" height="600" filterUnits="userSpaceOnUse" color-interpolation-filters="sRGB"><feFlood flood-opacity="0" result="BackgroundImageFix"></feFlood><feBlend mode="normal" in="SourceGraphic" in2="BackgroundImageFix" result="shape"></feBlend><feGaussianBlur stdDeviation="125" result="effect1_foregroundBlur"></feGaussianBlur></filter><radialGradient id="paint0_radial" cx="0" cy="0" r="1" gradientUnits="userSpaceOnUse" gradientTransform="translate(2309.42 126.988) rotate(179.466) scale(752.456 359413)"><stop stop-color="#6CB489"></stop><stop offset="1" stop-color="#A3DCA9" stop-opacity="0"></stop></radialGradient><radialGradient id="paint1_radial" cx="0" cy="0" r="1" gradientUnits="userSpaceOnUse" gradientTransform="translate(-282.538 568.988) rotate(179.221) scale(515.509 359395)"><stop stop-color="#6CB489"></stop><stop offset="1" stop-color="#A3DCA9" stop-opacity="0"></stop></radialGradient><radialGradient id="paint2_radial" cx="0" cy="0" r="1" gradientUnits="userSpaceOnUse" gradientTransform="translate(1386.73 173.988) rotate(176.73) scale(122.929 358843)"><stop stop-color="#ED3262"></stop><stop offset="1" stop-color="#ED3262" stop-opacity="0"></stop></radialGradient><radialGradient id="paint3_radial" cx="0" cy="0" r="1" gradientUnits="userSpaceOnUse" gradientTransform="translate(1295.7 670.988) rotate(178.767) scale(325.779 359345)"><stop stop-color="#ED3262"></stop><stop offset="1" stop-color="#ED3262" stop-opacity="0"></stop></radialGradient><radialGradient id="paint4_radial" cx="0" cy="0" r="1" gradientUnits="userSpaceOnUse" gradientTransform="translate(792.958 1136.99) rotate(179.233) scale(524.005 359396)"><stop stop-color="#B58246"></stop><stop offset="1" stop-color="#B58246" stop-opacity="0"></stop></radialGradient><radialGradient id="paint5_radial" cx="0" cy="0" r="1" gradientUnits="userSpaceOnUse" gradientTransform="translate(120.958 86.9879) rotate(179.233) scale(524.005 359396)"><stop stop-color="#ED3262"></stop><stop offset="1" stop-color="#ED3262" stop-opacity="0"></stop></radialGradient><radialGradient id="paint6_radial" cx="0" cy="0" r="1" gradientUnits="userSpaceOnUse" gradientTransform="translate(2352.81 939.988) rotate(179.587) scale(973.832 359419)"><stop stop-color="#B58246"></stop><stop offset="1" stop-color="#B58246" stop-opacity="0"></stop></radialGradient></defs></svg>