<svg width="32" height="12" viewBox="0 0 32 12" fill="#22A180" xmlns="http://www.w3.org/2000/svg"><path fill-rule="evenodd" clip-rule="evenodd" d="M2.359 1.65918C2.42545 1.65918 2.49006 1.68502 2.5362 1.73301C2.58419 1.77916 2.61004 1.84376 2.61004 1.91022V10.1206C2.61004 10.1889 2.5842 10.2517 2.5362 10.2997C2.49006 10.3477 2.42545 10.3735 2.359 10.3735H0.252885C0.184589 10.3735 0.121831 10.3477 0.0738345 10.2997C0.0258433 10.2517 0 10.1889 0 10.1206V1.91022C0 1.84376 0.0258423 1.77916 0.0738345 1.73301C0.121826 1.68502 0.184589 1.65918 0.252885 1.65918H2.359Z" fill="#22A180"></path><path fill-rule="evenodd" clip-rule="evenodd" d="M29.6417 1.65918H31.7478C31.8161 1.65918 31.8788 1.68502 31.9268 1.73301C31.9748 1.77916 32.0007 1.84376 32.0007 1.91022V10.1206C32.0007 10.1889 31.9748 10.2517 31.9268 10.2997C31.8788 10.3477 31.8161 10.3735 31.7478 10.3735H29.6417C29.5752 10.3735 29.5106 10.3477 29.4645 10.2997C29.4165 10.2517 29.3906 10.1889 29.3906 10.1206V1.91022C29.3906 1.84376 29.4165 1.77916 29.4645 1.73301C29.5106 1.68502 29.5752 1.65918 29.6417 1.65918Z" fill="#22A180"></path><path fill-rule="evenodd" clip-rule="evenodd" d="M12.66 1.6548H13.522C14.1145 1.6548 14.6738 1.9243 15.043 2.38578C15.4103 2.84909 15.5488 3.45452 15.4159 4.0323L13.9983 10.2032C13.7971 11.0855 13.0107 11.7113 12.1044 11.7113C10.7902 11.7113 9.02736 11.7113 7.69097 11.7094C6.50593 11.7094 5.35043 11.3421 4.38318 10.6573L3.34766 9.9263V2.4266L4.61761 1.4612C5.61623 0.700694 6.83633 0.289062 8.09154 0.289062H10.3656C10.8326 0.289062 11.2627 0.547486 11.4806 0.962811C11.6079 1.20462 11.7168 1.41136 11.739 1.4501L11.7464 1.46671L11.894 1.73251C12.0011 1.92263 12.0196 2.14968 11.9476 2.35641C11.8756 2.56314 11.7168 2.72743 11.5156 2.81049C10.7662 3.11691 9.93744 3.45655 9.93744 3.45655C9.74916 3.53408 9.65872 3.75004 9.73624 3.93831C9.81377 4.12659 10.0297 4.21703 10.218 4.1395C10.218 4.1395 11.0468 3.79987 11.7943 3.49345C12.1931 3.33101 12.5013 3.00616 12.6435 2.6019C12.7524 2.29365 12.7561 1.96137 12.6601 1.65498L12.66 1.6548Z" fill="#22A180"></path><path fill-rule="evenodd" clip-rule="evenodd" d="M20.2484 1.46671C20.2521 1.46302 20.2558 1.45563 20.2576 1.4501C20.2798 1.41133 20.3887 1.2046 20.516 0.962812C20.7338 0.547491 21.1639 0.289062 21.6309 0.289062H23.905C25.1602 0.289062 26.3804 0.700688 27.379 1.4612L28.6489 2.4266V9.9263L27.6134 10.6573C26.6462 11.3421 25.4907 11.7094 24.3056 11.7094C22.9692 11.7113 21.2064 11.7113 19.8922 11.7113C18.9859 11.7113 18.1995 11.0855 17.9983 10.2032L16.5807 4.0323C16.4478 3.45452 16.5863 2.8491 16.9536 2.38578C17.3227 1.92431 17.882 1.6548 18.4746 1.6548H19.3366C19.2406 1.96122 19.2443 2.29349 19.3532 2.60173C19.4953 3.00597 19.8036 3.33086 20.2023 3.49327C20.9499 3.79969 21.7787 4.13933 21.7787 4.13933C21.967 4.21685 22.1829 4.12641 22.2604 3.93813C22.338 3.74985 22.2475 3.53389 22.0592 3.45637C22.0592 3.45637 21.2304 3.11674 20.481 2.81032C20.2798 2.72725 20.1211 2.56297 20.0491 2.35623C19.9771 2.1495 19.9956 1.92246 20.1026 1.73234L20.2503 1.46653L20.2484 1.46671Z" fill="#22A180"></path></svg>