<svg width="20px" height="14" viewBox="0 0 21 15" fill="white" xmlns="http://www.w3.org/2000/svg" opacity="0.5"><path fill-rule="evenodd" clip-rule="evenodd" d="M15.2071 0.392553C15.5426 0.635459 15.6177 1.10436 15.3748 1.43987L13.0281 4.68121L12.6518 4.68649C12.2462 4.69218 11.9391 4.50204 11.7532 4.35308C11.7463 4.37182 11.739 4.39114 11.7316 4.41011C11.6712 4.56374 11.5901 4.75609 11.4747 4.90572C11.4144 4.9839 11.2913 5.1224 11.0874 5.20023C10.8463 5.29228 10.6137 5.25545 10.4415 5.17417C10.2989 5.10689 10.2035 5.01288 10.1605 4.96845C10.1118 4.91804 10.0691 4.86496 10.0433 4.83264C10.0337 4.82073 10.0248 4.80956 10.0164 4.79899C9.96954 4.74012 9.93753 4.69993 9.89533 4.6561C9.7079 4.46147 9.57267 4.2519 9.46957 4.05823C9.43043 4.20652 9.39576 4.34924 9.36705 4.47325C9.34065 4.58728 9.31979 4.6833 9.30562 4.75033C9.29854 4.78381 9.29316 4.80995 9.28962 4.82737L9.2857 4.84675L9.28482 4.85119L9.26936 4.9298L9.2381 5.00273L9.23762 5.00385L9.23689 5.00554L9.2347 5.01058L9.22751 5.02699C9.22151 5.0406 9.21309 5.05947 9.20257 5.08253C9.18163 5.12842 9.15185 5.19202 9.1158 5.26434C9.04801 5.40031 8.94161 5.60071 8.81829 5.77076C8.75973 5.85152 8.66829 5.96664 8.54622 6.06249C8.45052 6.13764 8.14421 6.35037 7.74342 6.22512C7.34874 6.10178 7.20967 5.75759 7.16606 5.62551C7.13509 5.53169 7.11495 5.43213 7.10179 5.33184C6.80765 5.52085 6.47844 5.74539 6.17594 5.95701C5.9348 6.12569 5.71832 6.28072 5.56211 6.3936C5.48406 6.44999 5.42123 6.49574 5.37807 6.52728L5.32868 6.56343L5.31308 6.5749L5.31224 6.57552C4.97882 6.82129 4.50929 6.75023 4.26352 6.41681C4.01775 6.08338 4.08881 5.61386 4.42223 5.36809L4.44111 5.35421L4.49319 5.31608C4.53822 5.28318 4.60319 5.23588 4.68358 5.17779C4.84424 5.0617 5.06716 4.90206 5.31612 4.72789C5.80457 4.38621 6.42528 3.96598 6.86908 3.71943C6.8879 3.70898 6.91104 3.69286 6.94997 3.66053C6.94997 3.66053 6.95226 3.65858 6.95484 3.65635C6.97825 3.63613 7.07686 3.55093 7.15233 3.50129C7.22566 3.45307 7.62595 3.20238 8.06167 3.47818C8.06488 3.48022 8.06807 3.48226 8.07123 3.48432C8.09473 3.4006 8.1195 3.31588 8.1454 3.23186C8.23909 2.92791 8.36747 2.56464 8.53136 2.29792C8.60092 2.18472 8.75353 1.95652 9.01952 1.83175C9.17738 1.75769 9.381 1.71822 9.60083 1.77213C9.81035 1.82351 9.95971 1.94137 10.0558 2.04512C10.3603 2.37399 10.5222 2.74836 10.6333 3.00518C10.6393 3.01889 10.6451 3.03226 10.6507 3.04528C10.6617 3.07064 10.6724 3.09498 10.6827 3.11838C10.8269 2.92154 11.0699 2.69173 11.4508 2.64692C11.8981 2.5943 12.233 2.7955 12.4289 2.95095L14.1597 0.560234C14.4027 0.22472 14.8716 0.149647 15.2071 0.392553Z"></path><path fill-rule="evenodd" clip-rule="evenodd" d="M1.49549 8.62695C1.53761 8.62695 1.57857 8.64334 1.60782 8.67376C1.63825 8.70302 1.65463 8.74397 1.65463 8.7861V13.9911C1.65463 14.0344 1.63825 14.0742 1.60782 14.1046C1.57857 14.135 1.53761 14.1514 1.49549 14.1514H0.160316C0.11702 14.1514 0.0772344 14.135 0.0468074 14.1046C0.0163833 14.0742 0 14.0344 0 13.9911V8.7861C0 8.74397 0.0163827 8.70302 0.0468074 8.67376C0.0772314 8.64334 0.11702 8.62695 0.160316 8.62695H1.49549Z"></path><path fill-rule="evenodd" clip-rule="evenodd" d="M18.79 8.62695H20.1252C20.1685 8.62695 20.2083 8.64334 20.2387 8.67376C20.2691 8.70302 20.2855 8.74397 20.2855 8.7861V13.9911C20.2855 14.0344 20.2691 14.0742 20.2387 14.1046C20.2083 14.135 20.1685 14.1514 20.1252 14.1514H18.79C18.7479 14.1514 18.7069 14.135 18.6777 14.1046C18.6472 14.0742 18.6309 14.0344 18.6309 13.9911V8.7861C18.6309 8.74397 18.6472 8.70302 18.6777 8.67376C18.7069 8.64334 18.7479 8.62695 18.79 8.62695Z"></path><path fill-rule="evenodd" clip-rule="evenodd" d="M8.0266 8.6246H8.57307C8.9487 8.6246 9.30326 8.79545 9.53731 9.088C9.77018 9.38172 9.85794 9.76553 9.77369 10.1318L8.87499 14.0439C8.74744 14.6032 8.24895 14.9999 7.67438 14.9999C6.84123 14.9999 5.72369 14.9999 4.87649 14.9987C4.12523 14.9987 3.3927 14.7659 2.77952 14.3317L2.12305 13.8683V9.11388L2.92813 8.50187C3.56121 8.01974 4.33469 7.75879 5.13043 7.75879H6.5721C6.86815 7.75879 7.1408 7.92262 7.2789 8.18591C7.35964 8.33921 7.42868 8.47027 7.44272 8.49483L7.4474 8.50536L7.54102 8.67386C7.60889 8.79439 7.62059 8.93832 7.57495 9.06938C7.52932 9.20044 7.42868 9.30459 7.30113 9.35725C6.82605 9.5515 6.30064 9.76682 6.30064 9.76682C6.18128 9.81596 6.12394 9.95287 6.17309 10.0722C6.22223 10.1916 6.35915 10.2489 6.4785 10.1998C6.4785 10.1998 7.00391 9.98446 7.47782 9.79021C7.73058 9.68723 7.926 9.48129 8.01611 9.22501C8.08516 9.02959 8.0875 8.81895 8.02665 8.62471L8.0266 8.6246Z"></path><path fill-rule="evenodd" clip-rule="evenodd" d="M12.8369 8.50536C12.8393 8.50302 12.8416 8.49834 12.8428 8.49483C12.8568 8.47025 12.9259 8.33919 13.0066 8.18591C13.1447 7.92262 13.4174 7.75879 13.7134 7.75879H15.1551C15.9508 7.75879 16.7243 8.01974 17.3574 8.50187L18.1625 9.11388V13.8683L17.506 14.3317C16.8928 14.7658 16.1603 14.9987 15.409 14.9987C14.5618 14.9999 13.4443 14.9999 12.6111 14.9999C12.0366 14.9999 11.5381 14.6032 11.4105 14.0439L10.5118 10.1318C10.4276 9.76553 10.5153 9.38173 10.7482 9.088C10.9822 8.79546 11.3368 8.6246 11.7124 8.6246H12.2589C12.1981 8.81885 12.2004 9.0295 12.2695 9.2249C12.3596 9.48117 12.555 9.68713 12.8077 9.7901C13.2817 9.98435 13.8071 10.1997 13.8071 10.1997C13.9264 10.2488 14.0633 10.1915 14.1125 10.0721C14.1616 9.95275 14.1043 9.81584 13.9849 9.7667C13.9849 9.7667 13.4595 9.55139 12.9844 9.35714C12.8569 9.30448 12.7562 9.20033 12.7106 9.06927C12.665 8.93821 12.6767 8.79428 12.7445 8.67375L12.8382 8.50525L12.8369 8.50536Z"></path></svg>