<svg width="26" height="19" viewBox="0 0 26 19" fill="none" xmlns="http://www.w3.org/2000/svg"><path d="M6.85938 7.5C6.85938 7.5 8.77538 6.08769 9.77522 5.53223C10.1578 5.31968 10.2734 4.98176 10.3975 5.38486C10.5061 5.73794 10.4948 6.02023 10.5121 6.38372C10.5815 7.84233 11.3963 5.9416 11.3963 5.9416C11.3963 5.9416 12.0331 2.70335 12.5753 3.28889C13.1175 3.87443 13.1541 4.64828 13.7215 5.23748C14.1149 5.64597 14.154 6.01226 14.4584 5.23748C14.571 4.95087 14.7192 4.36302 15.0806 4.3205C15.6468 4.2539 15.8594 5 16.4397 4.99186L19.0597 1.37305" stroke="#ED3262" stroke-width="1.5" stroke-linecap="round"></path><path fill-rule="evenodd" clip-rule="evenodd" d="M2.70234 10.7734C2.75426 10.7734 2.80473 10.7936 2.84078 10.8311C2.87828 10.8672 2.89847 10.9176 2.89847 10.9696V17.3839C2.89847 17.4373 2.87828 17.4863 2.84078 17.5238C2.80473 17.5613 2.75426 17.5815 2.70234 17.5815H1.05694C1.00358 17.5815 0.954555 17.5613 0.917058 17.5238C0.879565 17.4863 0.859375 17.4373 0.859375 17.3839V10.9696C0.859375 10.9176 0.879564 10.8672 0.917058 10.8311C0.954551 10.7936 1.00358 10.7734 1.05694 10.7734H2.70234Z" fill="#ED3262"></path><path fill-rule="evenodd" clip-rule="evenodd" d="M24.0164 10.7734H25.6618C25.7152 10.7734 25.7642 10.7936 25.8017 10.8311C25.8392 10.8672 25.8594 10.9176 25.8594 10.9696V17.3839C25.8594 17.4373 25.8392 17.4863 25.8017 17.5238C25.7642 17.5613 25.7152 17.5815 25.6618 17.5815H24.0164C23.9645 17.5815 23.914 17.5613 23.878 17.5238C23.8405 17.4863 23.8203 17.4373 23.8203 17.3839V10.9696C23.8203 10.9176 23.8405 10.8672 23.878 10.8311C23.914 10.7936 23.9645 10.7734 24.0164 10.7734Z" fill="#ED3262"></path><path fill-rule="evenodd" clip-rule="evenodd" d="M10.7499 10.7701H11.4233C11.8862 10.7701 12.3232 10.9807 12.6116 11.3412C12.8986 11.7031 13.0067 12.1761 12.9029 12.6275L11.7954 17.4486C11.6382 18.1379 11.0239 18.6267 10.3158 18.6267C9.28908 18.6267 7.91188 18.6267 6.86782 18.6253C5.94201 18.6253 5.03927 18.3383 4.28361 17.8033L3.47461 17.2322V11.3731L4.46676 10.6189C5.24693 10.0247 6.20014 9.70312 7.18077 9.70312H8.95741C9.32226 9.70312 9.65825 9.90502 9.82844 10.2295C9.92794 10.4184 10.013 10.5799 10.0303 10.6102L10.0361 10.6232L10.1515 10.8308C10.2351 10.9794 10.2495 11.1567 10.1933 11.3182C10.137 11.4797 10.013 11.6081 9.85584 11.673C9.27037 11.9124 8.62288 12.1777 8.62288 12.1777C8.47579 12.2383 8.40513 12.407 8.46569 12.5541C8.52626 12.7012 8.69498 12.7718 8.84206 12.7113C8.84206 12.7113 9.48956 12.4459 10.0736 12.2065C10.3851 12.0796 10.6259 11.8259 10.737 11.51C10.822 11.2692 10.8249 11.0096 10.7499 10.7702L10.7499 10.7701Z" fill="#ED3262"></path><path fill-rule="evenodd" clip-rule="evenodd" d="M16.6794 10.6232C16.6823 10.6203 16.6852 10.6145 16.6866 10.6102C16.7039 10.5799 16.789 10.4184 16.8885 10.2295C17.0587 9.90502 17.3947 9.70312 17.7595 9.70312H19.5362C20.5168 9.70312 21.47 10.0247 22.2502 10.6189L23.2423 11.3731V17.2322L22.4333 17.8033C21.6777 18.3383 20.7749 18.6253 19.8491 18.6253C18.8051 18.6267 17.4279 18.6267 16.4011 18.6267C15.693 18.6267 15.0787 18.1379 14.9216 17.4486L13.814 12.6275C13.7102 12.1761 13.8184 11.7032 14.1053 11.3412C14.3937 10.9807 14.8307 10.7701 15.2936 10.7701H15.9671C15.8921 11.0095 15.895 11.2691 15.9801 11.5099C16.0911 11.8257 16.3319 12.0795 16.6434 12.2064C17.2274 12.4458 17.8749 12.7111 17.8749 12.7111C18.022 12.7717 18.1908 12.7011 18.2513 12.554C18.3119 12.4069 18.2412 12.2381 18.0941 12.1776C18.0941 12.1776 17.4466 11.9122 16.8612 11.6729C16.704 11.608 16.58 11.4796 16.5237 11.3181C16.4675 11.1566 16.4819 10.9792 16.5655 10.8307L16.6809 10.623L16.6794 10.6232Z" fill="#ED3262"></path></svg>